<?xml version="1.0" encoding="utf-8"?>
<!-- Generator: Adobe Illustrator 25.2.0, SVG Export Plug-In . SVG Version: 6.00 Build 0)  -->
<svg version="1.1" id="Layer_1" xmlns="http://www.w3.org/2000/svg" xmlns:xlink="http://www.w3.org/1999/xlink" x="0px" y="0px"
	 viewBox="0 0 898 203.4" style="enable-background:new 0 0 898 203.4;" xml:space="preserve">
<style type="text/css">
	.st0{display:none;}
	.st1{display:inline;}
	.st2{fill:#FFFFFF;}
</style>
<g class="st0">
	<g class="st1">
		<path class="st2" d="M252.8,102.3v38.5h-19.5v-39c0-5.5-0.8-9.5-2.5-12.1c-1.7-2.6-4.4-3.9-8.1-3.9c-3.7,0-7.1,1.4-9.9,4.2
			c-2.9,2.8-4.3,6.9-4.3,12.3v38.5h-19.4V69.2h19.4v9c5.3-6,11.4-9,18.3-9c4.4,0,8.4,1.3,11.9,3.9c3.6,2.6,6.3,5.7,8.1,9.4
			c2.7-4.2,6.3-7.5,10.8-9.8c4.5-2.3,9.1-3.5,13.6-3.5c8.2,0,14.8,2.4,19.7,7.3c5,4.9,7.5,11.9,7.5,21.1v43.3h-19.5v-39
			c0-10.7-3.9-16-11.7-16c-3.9,0-7.2,1.4-10.1,4.2C254.2,92.8,252.8,96.9,252.8,102.3z"/>
		<path class="st2" d="M382.7,105c0,10.1-3.5,18.5-10.5,25.4c-7,6.9-15.7,10.3-26.3,10.3s-19.3-3.4-26.3-10.3
			c-7-6.9-10.5-15.4-10.5-25.4c0-10.1,3.5-18.6,10.5-25.5c7-6.9,15.7-10.4,26.3-10.4s19.3,3.5,26.3,10.4
			C379.2,86.5,382.7,95,382.7,105z M328.8,105c0,5.7,1.6,10.3,4.8,13.9c3.2,3.6,7.4,5.4,12.4,5.4s9.2-1.8,12.4-5.4
			c3.2-3.6,4.8-8.2,4.8-13.9c0-5.7-1.6-10.3-4.8-13.9s-7.4-5.4-12.4-5.4s-9.2,1.8-12.4,5.4S328.8,99.4,328.8,105z"/>
		<path class="st2" d="M413.8,101v39.8h-19.4V69.2h19.4v8.8c5.8-5.9,12.4-8.9,19.7-8.9c7.3,0,13.4,2.6,18.4,7.7
			c4.9,5.2,7.4,12,7.4,20.6v43.3H440v-40.3c0-10.7-3.9-16-11.7-16c-3.9,0-7.2,1.4-10.1,4.2C415.2,91.5,413.8,95.6,413.8,101z"/>
		<path class="st2" d="M526.6,118.1c0,6.8-2.5,12.3-7.5,16.4c-5,4.1-11.4,6.2-19.2,6.2c-5.2,0-10.5-0.9-16.1-2.8
			c-5.6-1.9-10.6-4.6-15.1-8.2l8.5-12.1c7.2,5.6,14.9,8.4,23.1,8.4c2.5,0,4.5-0.5,5.9-1.5c1.5-1,2.2-2.3,2.2-3.9c0-1.6-1-3.1-3-4.5
			c-2-1.4-4.9-2.7-8.8-3.9c-3.8-1.2-6.8-2.2-8.8-3.1c-2-0.9-4.3-2.1-6.9-3.7c-5.2-3.3-7.9-8.1-7.9-14.5s2.6-11.6,7.7-15.7
			c5.2-4,11.8-6.1,20-6.1s16.3,2.8,24.5,8.3l-7.2,12.9c-6-4.1-12-6.2-18-6.2c-6,0-9,1.6-9,4.9c0,1.8,0.9,3.2,2.8,4.3
			c1.9,1,5,2.2,9.4,3.6c4.4,1.4,7.5,2.4,9.4,3.2c1.8,0.7,4.1,1.9,6.6,3.4C524.2,106.4,526.6,111.3,526.6,118.1z"/>
		<path class="st2" d="M564.4,84.3v31.1c0,2.7,0.7,4.8,2.1,6.3c1.4,1.5,2.1,2,4.9,2l9.1,0v17.2c0,0-5.1,0-11.8,0
			c-6.7,0-12.2-2.3-16.8-6.7c-4.6-4.4-6.9-10.4-6.9-17.9v-32h-12.6v-15h12.6V49.6h19.5v19.7h12.5v15H564.4z"/>
		<path class="st2" d="M650,129.4c-7.8,7.4-17,11.1-27.5,11.1c-10.5,0-20.8-3.2-27.6-9.7c-6.9-6.5-10.3-15.2-10.3-26.1
			c0-10.9,3.5-19.6,10.5-26.1c7-6.5,16.8-9.7,26.3-9.7c9.5,0,17.7,2.9,24.3,8.6c6.7,5.8,10,13.7,10,23.7v10.3h-50.6
			c0.6,3.8,2.6,6.9,5.9,9.3c3.4,2.4,7.1,3.6,11.4,3.6c6.8,0,12.4-2.3,16.8-6.8L650,129.4z M631.4,88.3c-2.7-2.2-5.9-3.4-9.7-3.4
			c-3.8,0-7.3,1.2-10.5,3.5c-3.2,2.3-5,5.5-5.5,9.4h30.4C635.6,93.7,634.1,90.5,631.4,88.3z"/>
		<path class="st2" d="M703.5,87.1c-5.8,0-10.1,2-12.9,6.1c-2.8,4.1-4.3,9.5-4.3,16.2v31.4H667V69.2h19.4v10
			c2.5-2.8,5.6-5.2,9.4-7.2c3.7-2,7.5-3,11.4-3.1l0.1,18.2L703.5,87.1L703.5,87.1z"/>
		<path class="st2" d="M750.8,123.4c6.4,0,12.3-3.2,17.4-9.7l11.5,12.9c-8.9,9.3-18.6,13.9-29,13.9c-10.4,0-19.2-3.3-26.4-9.9
			c-7.2-6.6-10.8-15.2-10.8-25.8c0-10.6,3.6-19.3,10.9-25.9c7.3-6.7,15.9-10,25.9-10c5,0,10,1,15.2,3.1s9.6,5.1,13.5,9.2l-10.1,13.2
			c-2.2-2.7-5-4.7-8.2-6.2c-3.2-1.5-6.4-2.2-9.6-2.2c-5.1,0-9.4,1.7-13.1,5c-3.7,3.3-5.5,7.9-5.5,13.8c0,5.9,1.8,10.5,5.5,13.7
			C741.6,121.7,745.9,123.4,750.8,123.4z"/>
		<path class="st2" d="M848.9,140.8h-18.2v-9.7c-5,6.3-11.2,9.4-18.5,9.4s-13.5-2.1-18.5-6.4c-5-4.3-7.5-9.9-7.5-17
			c0-7.1,2.6-12.4,7.7-15.9c5.2-3.5,12.2-5.3,21.2-5.3h14.4v-0.4c0-7.4-3.9-11.1-11.7-11.1c-3.4,0-6.9,0.7-10.6,2
			c-3.7,1.3-6.9,3-9.5,5l-8.6-12.5c9.1-6.6,19.5-9.9,31.2-9.9c8.4,0,15.3,2.1,20.6,6.3c5.3,4.2,8,10.9,8,20V140.8z M829.5,113v-3.4
			h-12.1c-7.7,0-11.6,2.4-11.6,7.2c0,2.5,0.9,4.4,2.8,5.7c1.9,1.3,4.5,2,7.9,2c3.4,0,6.5-1.1,9.1-3.2
			C828.1,119.4,829.5,116.6,829.5,113z"/>
		<path class="st2" d="M886.8,84.3v31.1c0,2.7,0.7,4.8,2.1,6.3c1.4,1.5,2.1,2,4.9,2l9.1,0v17.2c0,0-5.1,0-11.8,0
			c-6.7,0-12.2-2.3-16.8-6.7c-4.6-4.4-6.9-10.4-6.9-17.9v-32h-12.6v-15h12.6V49.6h19.5v19.7h12.5v15H886.8z"/>
	</g>
	<g class="st1">
		<g>
			<path class="st2" d="M116.7,148.8c6.9-19.8,3.9-30.4-3-36.3c12.2-2.9,22.7-5.9,23.9-7.4c5.8-7.4,0-26.8-10.9-24.8
				c-3.8,0.7-12.4,4.7-21.9,9.5c2.8-4.4,4.7-9.5,5.5-14.8c6.2-2,11.1-8.9,11.1-16.3c0-1.1-0.1-2.1-0.3-3.2
				c-1.3-6.3-5.2-11.7-9.8-13.8c-1.2-2.9-3-6.5-5.7-10.2c-2.2-3-4.9-6-8.4-8.7C96,17.8,94.7,12.9,93.3,9c-0.9-2.5-1.8-4.6-2.7-6.2
				c-1-1.5-1.9-2.7-3.5-2.8c-0.1,0-0.2,0-0.4,0c-2.4,0.5-4.1,3-5.9,6.2c-1.3,2.5-2.6,5.5-3.9,8.6c-1.8-0.2-3.7-0.3-5.7-0.3
				c-4.6,0-9.6,0.6-15.2,1.9c-5.1,1.2-9.5,2.7-13.4,4.5c-1.3-1.7-2.6-3.2-3.8-4.6c-2.5-2.6-4.8-4.5-7.2-4.6c-0.2,0-0.4,0-0.6,0.1
				c-1.3,0.3-2,1.3-2.5,2.6c-1.4,3.5-1.8,10.1-1.9,17.7c-1.6,1.7-3,3.5-4.2,5.3c-5.7,8.7-6.9,17.8-6.9,23.6c0,0.2,0,0.3,0,0.5
				c-1.7,3-2.7,6.8-2.7,10.7c0,0,0,0.1,0,0.1c0.1,9.2,8,16.9,15.9,16.9c0,0,0,0,0,0c1.9,0,3.7-0.5,5.4-1.5c4,7.3,10.1,13.3,17.6,17
				c-17.7-0.7-38.8-1.2-41,0.4c-7.7,5.7-7.7,25.8,3.4,26.6c4.7,0.3,17.5-2.1,30.6-5c-2.8,4-5.1,8.4-6.7,13.2
				c-18.8-2.3-31-1.6-37.7,2.3l0,0c-1.5,0.9-2.6,2.5-2.6,4.4c0,2.8,2.3,5.2,5.1,5.2c0.9,0,1.8-0.3,2.6-0.7l0,0
				c3.4-2,11.6-3.4,30.6-1.1c-0.6,10.3,3,21.5,13.7,32.3c-23.6-11.6-38.4-3.9-27.8,19.6c12.1,3.5,48.7-0.5,52.4-3
				c2.1-1.5-7.6-24.7-9.8-44.2c1.6,0.2,3,0.3,4.5,0.3c6.2,0,10.9-1.9,14-5.7c5.3-6.3,3.9-15.6,2.5-21c24.3,4.8,12.2,38.7,15.7,40.5
				c9.3,4.7,32.4,0.9,44-3.9C152.1,140,138.1,133.8,116.7,148.8z M27.4,54.9c-0.6-0.1-1.2-0.2-1.8-0.2c-1.3,0-2.5,0.3-3.7,0.8
				c0.6-4.2,2-9.1,4.9-13.9C27,46.2,27.2,50.8,27.4,54.9z M57.5,22.1c5.1-1.2,9.7-1.7,13.8-1.7c1.3,0,2.5,0.1,3.6,0.2
				c-0.9,2.7-1.7,5.2-2.4,7.4c-0.8,0-1.6-0.1-2.4-0.1c-7,0-13.6,1.8-19.4,4.9c-1.3-2.1-2.8-4.4-4.5-6.8c0,0-0.1-0.1-0.1-0.1
				C49.6,24.3,53.3,23.1,57.5,22.1z M75.3,142.9c-1.6,1.9-5.4,2.4-10.9,1.5c0.6-7.8,3.5-13.9,10.5-15.9
				C76.2,132,77.9,139.8,75.3,142.9z M98.1,89.3c-2-0.2-3.9-0.3-5.7-0.3l-4.7-11.1l-2.1,11.2c-7.8,0.5-14.1,2.2-18.8,4.1l-6.8-8.4
				l1.1,11c-3.6,2-5.3,3.6-5.3,3.6c-6-6-10.8-16.4-12.9-20.9c2.7-1.9,5.6-3.6,8.6-5l7.4,8.2L57.1,71c8.6-3.5,17.5-5.5,25.4-6.6
				l5,9.1l0.8-9.8c5.5-0.6,10.2-0.7,13.3-0.7C101.6,76.1,99.5,85,98.1,89.3z M99.6,33.2c0.5,0.6,0.9,1.2,1.4,1.8
				c1.5,2.1,2.7,4.1,3.6,6.1c-1,0.3-2,0.8-3,1.5c-0.1-0.1-0.1-0.1-0.2-0.2C100.9,39.5,100.3,36.4,99.6,33.2z"/>
		</g>
	</g>
</g>
<g>
	<g>
		<path class="st2" d="M254.8,104.8v38.5h-19.5v-39c0-5.5-0.8-9.5-2.5-12.1c-1.7-2.6-4.4-3.9-8.1-3.9c-3.7,0-7.1,1.4-9.9,4.2
			c-2.9,2.8-4.3,6.9-4.3,12.3v38.5h-19.4V74.6h19.4v6.1c5.3-6,11.4-9,18.3-9c4.4,0,8.4,1.3,11.9,3.9c3.6,2.6,6.3,5.7,8.1,9.4
			c2.7-4.2,6.3-7.5,10.8-9.8c4.5-2.3,9.1-3.5,13.6-3.5c8.2,0,14.8,2.4,19.7,7.3c5,4.9,7.5,11.9,7.5,21.1v43.3h-19.5v-39
			c0-10.7-3.9-16-11.7-16c-3.9,0-7.2,1.4-10.1,4.2C256.2,95.3,254.8,99.4,254.8,104.8z"/>
		<path class="st2" d="M383.7,107.5c0,10.1-3.5,18.5-10.5,25.4c-7,6.9-15.7,10.3-26.3,10.3s-19.3-3.4-26.3-10.3
			c-7-6.9-10.5-15.4-10.5-25.4c0-10.1,3.5-18.6,10.5-25.5c7-6.9,15.7-10.4,26.3-10.4s19.3,3.5,26.3,10.4
			C380.2,89,383.7,97.5,383.7,107.5z M329.8,107.5c0,5.7,1.6,10.3,4.8,13.9c3.2,3.6,7.4,5.4,12.4,5.4s9.2-1.8,12.4-5.4
			c3.2-3.6,4.8-8.2,4.8-13.9s-1.6-10.3-4.8-13.9s-7.4-5.4-12.4-5.4s-9.2,1.8-12.4,5.4S329.8,101.9,329.8,107.5z"/>
		<path class="st2" d="M412.8,103.5v39.8h-19.4V74.6h19.4v6c5.8-5.9,12.4-8.9,19.7-8.9c7.3,0,13.4,2.6,18.4,7.7
			c4.9,5.2,7.4,12,7.4,20.6v43.3H439V103c0-10.7-3.9-16-11.7-16c-3.9,0-7.2,1.4-10.1,4.2C414.2,94,412.8,98.1,412.8,103.5z"/>
		<path class="st2" d="M525.6,120.6c0,6.8-2.5,12.3-7.5,16.4c-5,4.1-11.4,6.2-19.2,6.2c-5.2,0-10.5-0.9-16.1-2.8
			c-5.6-1.9-10.6-4.6-15.1-8.2l8.5-12.1c7.2,5.6,14.9,8.4,23.1,8.4c2.5,0,4.5-0.5,5.9-1.5c1.5-1,2.2-2.3,2.2-3.9c0-1.6-1-3.1-3-4.5
			c-2-1.4-4.9-2.7-8.8-3.9c-3.8-1.2-6.8-2.2-8.8-3.1c-2-0.9-4.3-2.1-6.9-3.7c-5.2-3.3-7.9-8.1-7.9-14.5s2.6-11.6,7.7-15.7
			c5.2-4,11.8-6.1,20-6.1s16.3,2.8,24.5,8.3L517,92.8c-6-4.1-12-6.2-18-6.2c-6,0-9,1.6-9,4.9c0,1.8,0.9,3.2,2.8,4.3
			c1.9,1,5,2.2,9.4,3.6c4.4,1.4,7.5,2.4,9.4,3.2c1.8,0.7,4.1,1.9,6.6,3.4C523.2,108.9,525.6,113.8,525.6,120.6z"/>
		<path class="st2" d="M561.4,86.8v31.1c0,2.7,0.7,4.8,2.1,6.3c1.4,1.5,2.1,2,4.9,2l9.1,0v17.2c0,0-5.1,0-11.8,0
			c-6.7,0-12.2-2.3-16.8-6.7c-4.6-4.4-6.9-10.4-6.9-17.9v-32h-10.5v-15h10.5V52.1h19.5v19.7h16v15C577.4,86.8,561.4,86.8,561.4,86.8
			z"/>
		<path class="st2" d="M881.9,86.8v31.1c0,2.7,0.7,4.8,2.1,6.3c1.4,1.5,2.1,2,4.9,2l9.1,0v17.2c0,0-5.1,0-11.8,0
			c-6.7,0-12.2-2.3-16.8-6.7c-4.6-4.4-6.9-10.4-6.9-17.9v-32h-10.5v-15h10.5V52.1h19.5v19.7h16v15C897.9,86.8,881.9,86.8,881.9,86.8
			z"/>
		<path class="st2" d="M647,131.9c-7.8,7.4-17,11.1-27.5,11.1c-10.5,0-20.8-3.2-27.6-9.7c-6.9-6.5-10.3-15.2-10.3-26.1
			c0-10.9,3.5-19.6,10.5-26.1c7-6.5,16.8-9.7,26.3-9.7c9.5,0,17.7,2.9,24.3,8.6c6.7,5.8,10,13.7,10,23.7v10.3h-50.6
			c0.6,3.8,2.6,6.9,5.9,9.3c3.4,2.4,7.1,3.6,11.4,3.6c6.8,0,12.4-2.3,16.8-6.8L647,131.9z M628.4,90.8c-2.7-2.2-5.9-3.4-9.7-3.4
			c-3.8,0-7.3,1.2-10.5,3.5c-3.2,2.3-5,5.5-5.5,9.4h30.4C632.6,96.2,631.1,93,628.4,90.8z"/>
		<path class="st2" d="M700.5,89.6c-5.8,0-10.1,2-12.9,6.1c-2.8,4.1-4.3,9.5-4.3,16.2v31.4H664V71.7h19.4v10
			c2.5-2.8,5.6-5.2,9.4-7.2c3.7-2,7.5-3,11.4-3.1l0.1,18.2L700.5,89.6L700.5,89.6z"/>
		<path class="st2" d="M746.8,125.9c6.4,0,12.3-3.2,17.4-9.7l11.5,12.9c-8.9,9.3-18.6,13.9-29,13.9c-10.4,0-19.2-3.3-26.4-9.9
			c-7.2-6.6-10.8-15.2-10.8-25.8c0-10.6,3.6-19.3,10.9-25.9c7.3-6.7,15.9-10,25.9-10c5,0,10,1,15.2,3.1s9.6,5.1,13.5,9.2l-10.1,13.2
			c-2.2-2.7-5-4.7-8.2-6.2c-3.2-1.5-6.4-2.2-9.6-2.2c-5.1,0-9.4,1.7-13.1,5c-3.7,3.3-5.5,7.9-5.5,13.8c0,5.9,1.8,10.5,5.5,13.7
			C737.6,124.2,741.9,125.9,746.8,125.9z"/>
		<path class="st2" d="M844.9,143.4h-18.2v-9.7c-5,6.3-11.2,9.4-18.5,9.4s-13.5-2.1-18.5-6.4c-5-4.3-7.5-9.9-7.5-17
			c0-7.1,2.6-12.4,7.7-15.9c5.2-3.5,12.2-5.3,21.2-5.3h14.4V98c0-7.4-3.9-11.1-11.7-11.1c-3.4,0-6.9,0.7-10.6,2
			c-3.7,1.3-6.9,3-9.5,5l-8.6-12.5c9.1-6.6,19.5-9.9,31.2-9.9c8.4,0,15.3,2.1,20.6,6.3c5.3,4.2,8,10.9,8,20V143.4z M825.5,115.6
			v-3.4h-12.1c-7.7,0-11.6,2.4-11.6,7.2c0,2.5,0.9,4.4,2.8,5.7c1.9,1.3,4.5,2,7.9,2c3.4,0,6.5-1.1,9.1-3.2
			C824.1,121.9,825.5,119.1,825.5,115.6z"/>
	</g>
	<g>
		<g>
			<path class="st2" d="M118.7,148.8c6.9-19.8,3.9-30.4-3-36.3c12.2-2.9,22.7-5.9,23.9-7.4c5.8-7.4,0-26.8-10.9-24.8
				c-3.8,0.7-12.4,4.7-21.9,9.5c2.8-4.4,4.7-9.5,5.5-14.8c6.2-2,11.1-8.9,11.1-16.3c0-1.1-0.1-2.1-0.3-3.2
				c-1.3-6.3-5.2-11.7-9.8-13.8c-1.2-2.9-3-6.5-5.7-10.2c-2.2-3-4.9-6-8.4-8.7C98,17.8,96.7,12.9,95.3,9c-0.9-2.5-1.8-4.6-2.7-6.2
				c-1-1.5-1.9-2.7-3.5-2.8c-0.1,0-0.2,0-0.4,0c-2.4,0.5-4.1,3-5.9,6.2c-1.3,2.5-2.6,5.5-3.9,8.6c-1.8-0.2-3.7-0.3-5.7-0.3
				c-4.6,0-9.6,0.6-15.2,1.9c-5.1,1.2-9.5,2.7-13.4,4.5c-1.3-1.7-2.6-3.2-3.8-4.6c-2.5-2.6-4.8-4.5-7.2-4.6c-0.2,0-0.4,0-0.6,0.1
				c-1.3,0.3-2,1.3-2.5,2.6c-1.4,3.5-1.8,10.1-1.9,17.7c-1.6,1.7-3,3.5-4.2,5.3c-5.7,8.7-6.9,17.8-6.9,23.6c0,0.2,0,0.3,0,0.5
				c-1.7,3-2.7,6.8-2.7,10.7c0,0,0,0.1,0,0.1c0.1,9.2,8,16.9,15.9,16.9c0,0,0,0,0,0c1.9,0,3.7-0.5,5.4-1.5c4,7.3,10.1,13.3,17.6,17
				c-17.7-0.7-38.8-1.2-41,0.4c-7.7,5.7-7.7,25.8,3.4,26.6c4.7,0.3,17.5-2.1,30.6-5c-2.8,4-5.1,8.4-6.7,13.2
				c-18.8-2.3-31-1.6-37.7,2.3l0,0C1,143.3,0,144.9,0,146.8c0,2.8,2.3,5.2,5.1,5.2c0.9,0,1.8-0.3,2.6-0.7l0,0
				c3.4-2,11.6-3.4,30.6-1.1c-0.6,10.3,3,21.5,13.7,32.3c-23.6-11.6-38.4-3.9-27.8,19.6c12.1,3.5,48.7-0.5,52.4-3
				c2.1-1.5-7.6-24.7-9.8-44.2c1.6,0.2,3,0.3,4.5,0.3c6.2,0,10.9-1.9,14-5.7c5.3-6.3,3.9-15.6,2.5-21c24.3,4.8,12.2,38.7,15.7,40.5
				c9.3,4.7,32.4,0.9,44-3.9C154.1,140,140.1,133.8,118.7,148.8z M29.4,54.9c-0.6-0.1-1.2-0.2-1.8-0.2c-1.3,0-2.5,0.3-3.7,0.8
				c0.6-4.2,2-9.1,4.9-13.9C29,46.2,29.2,50.8,29.4,54.9z M59.5,22.1c5.1-1.2,9.7-1.7,13.8-1.7c1.3,0,2.5,0.1,3.6,0.2
				c-0.9,2.7-1.7,5.2-2.4,7.4c-0.8,0-1.6-0.1-2.4-0.1c-7,0-13.6,1.8-19.4,4.9c-1.3-2.1-2.8-4.4-4.5-6.8c0,0-0.1-0.1-0.1-0.1
				C51.6,24.3,55.3,23.1,59.5,22.1z M77.3,142.9c-1.6,1.9-5.4,2.4-10.9,1.5c0.6-7.8,3.5-13.9,10.5-15.9
				C78.2,132,79.9,139.8,77.3,142.9z M100.1,89.3c-2-0.2-3.9-0.3-5.7-0.3l-4.7-11.1l-2.1,11.2c-7.8,0.5-14.1,2.2-18.8,4.1l-6.8-8.4
				l1.1,11c-3.6,2-5.3,3.6-5.3,3.6c-6-6-10.8-16.4-12.9-20.9c2.7-1.9,5.6-3.6,8.6-5l7.4,8.2L59.1,71c8.6-3.5,17.5-5.5,25.4-6.6
				l5,9.1l0.8-9.8c5.5-0.6,10.2-0.7,13.3-0.7C103.6,76.1,101.5,85,100.1,89.3z M101.6,33.2c0.5,0.6,0.9,1.2,1.4,1.8
				c1.5,2.1,2.7,4.1,3.6,6.1c-1,0.3-2,0.8-3,1.5c-0.1-0.1-0.1-0.1-0.2-0.2C102.9,39.5,102.3,36.4,101.6,33.2z"/>
		</g>
	</g>
</g>
</svg>
