<svg width="247" height="111" viewBox="0 0 247 111" fill="none" xmlns="http://www.w3.org/2000/svg">
								<path d="M34.6963 85.5621V66.5417L0 76.0519H20.1769L34.6963 85.5621Z" fill="white"></path>
								<path d="M67.5767 85.5621L58.0751 60.3446L39.8196 65.1532L47.1862 85.5621H67.5767Z" fill="white"></path>
								<path d="M104.835 31.4012H105.369L107.077 40.2565L123.055 36.4088L115.938 0H94.586L84.9789 45.8121L103.447 41.0036L104.835 31.4012Z" fill="white"></path>
								<path d="M124.371 42.3935L107.825 46.7743L110.067 61.5194H100.672L102.807 48.2698L83.4834 53.6129L76.651 85.5621H96.0814L98.3233 74.9827H111.988L114.016 85.5621H133.659L124.371 42.3935Z" fill="white"></path>
								<path d="M164.654 31.4012L145.011 36.6227V85.5621H164.654V31.4012Z" fill="white"></path>
								<path d="M164.654 0H145.011V31.4012L164.654 26.3654V0Z" fill="white"></path>
								<path d="M209.683 70.0085C209.612 70.65 208.638 70.8518 208.638 70.8518H198.485V22.2572L178.748 27.6471V85.5621H214.19L229.611 72.3834V13.8269L209.683 19.3357C209.683 19.3357 209.753 69.367 209.683 70.0085Z" fill="white"></path>
								<path d="M198.389 15.015H208.353C208.353 15.015 209.088 15.1099 209.456 15.5963L246.999 5.61174L224.532 5.9913L217.653 0H178.746V23.0885L198.389 18.2438V15.015Z" fill="white"></path>
								<path d="M21.3519 99.7284C21.3519 99.7284 18.3089 99.7284 17.7133 99.7284C17.1178 99.7284 17.1979 99.3275 17.1979 99.3275C17.1979 99.3275 17.2153 96.3619 17.1979 95.7926C17.1806 95.2232 17.6065 95.2767 17.6065 95.2767L22.9088 95.2941L22.0369 91.6696C22.0369 91.6696 17.5705 91.5894 15.2138 91.7137C12.8571 91.838 12.9358 93.6903 12.9358 93.6903C12.9358 93.6903 12.9265 100.013 12.9625 101.411C12.9986 102.809 14.3953 102.933 14.3953 102.933C14.3953 102.933 18.0071 102.933 18.2301 102.933C18.4531 102.933 18.5505 103.2 18.5505 103.2C18.5505 103.2 18.5866 106.816 18.5505 107.11C18.5145 107.404 18.0191 107.36 18.0191 107.36H13.2737L14.012 110.985C14.012 110.985 20.3371 111.1 21.5829 110.69C22.8287 110.281 22.9795 108.589 22.9795 108.589C22.9795 108.589 23.0062 101.42 22.8634 100.673C22.7218 99.9249 21.3519 99.7284 21.3519 99.7284Z" fill="white"></path>
								<path d="M226.225 99.7284C226.225 99.7284 223.182 99.7284 222.586 99.7284C221.991 99.7284 222.071 99.3275 222.071 99.3275C222.071 99.3275 222.088 96.3619 222.071 95.7926C222.054 95.2232 222.48 95.2767 222.48 95.2767L227.782 95.2941L226.91 91.6696C226.91 91.6696 222.444 91.5894 220.087 91.7137C217.729 91.838 217.809 93.6903 217.809 93.6903C217.809 93.6903 217.8 100.013 217.836 101.411C217.872 102.809 219.268 102.933 219.268 102.933C219.268 102.933 222.88 102.933 223.103 102.933C223.326 102.933 223.424 103.2 223.424 103.2C223.424 103.2 223.46 106.816 223.424 107.11C223.388 107.404 222.892 107.36 222.892 107.36H218.148L218.886 110.985C218.886 110.985 225.211 111.1 226.457 110.69C227.703 110.281 227.854 108.589 227.854 108.589C227.854 108.589 227.881 101.42 227.738 100.673C227.595 99.9249 226.225 99.7284 226.225 99.7284Z" fill="white"></path>
								<path d="M35.3359 99.8567H32.7508V91.6442H28.195V111H32.7508V103.29H35.2024V111H39.8023V91.6442H35.3359V99.8567Z" fill="white"></path>
								<path d="M107.646 102.622L105.831 91.6883H102.628L100.779 102.48L99.3194 91.6883H94.6581L98.2873 110.985H102.38L104.177 101.126L106.081 110.992L110.172 110.985L113.696 91.6883H109.069L107.646 102.622Z" fill="white"></path>
								<path d="M130.042 91.6883H125.463V110.985L133.659 110.992L134.621 107.384H130.042V91.6883Z" fill="white"></path>
								<path d="M148.949 95.2259L148.143 91.6883H144.133H139.554V110.985L147.751 110.992L148.713 107.384H144.133V103.251H147.669V99.9275H144.133V95.2259H148.949Z" fill="white"></path>
								<path d="M179.909 95.2259L179.102 91.6883H175.093H170.515V110.985L178.71 110.992L179.672 107.384H175.093V103.251H178.628V99.9275H175.093V95.2259H179.909Z" fill="white"></path>
								<path d="M87.843 91.6883H80.8677C79.6192 91.6883 78.6084 92.7013 78.6084 93.9496V108.723C78.6084 109.972 79.6206 110.984 80.8677 110.984H87.843C89.0914 110.984 90.1022 109.971 90.1022 108.723V93.9496C90.1022 92.7 89.0914 91.6883 87.843 91.6883ZM85.7253 107.065C85.7253 107.365 85.4823 107.608 85.1832 107.608H83.4928C83.1937 107.608 82.9506 107.365 82.9506 107.065V95.5079C82.9506 95.2085 83.1937 94.9653 83.4928 94.9653H85.1832C85.4823 94.9653 85.7253 95.2085 85.7253 95.5079V107.065V107.065Z" fill="white"></path>
								<path d="M72.4757 92.1868C71.9069 91.8661 71.3848 91.7592 71.3848 91.7592L61.8832 91.6883V110.985H70.4955C70.4955 110.985 72.2514 110.743 72.6186 110.281C72.9858 109.819 73.2355 108.856 73.2475 108.642C73.2595 108.429 73.2475 93.4217 73.2475 93.4217C73.2475 93.4217 73.0458 92.5076 72.4757 92.1868ZM68.956 107.065C68.956 107.365 68.713 107.608 68.4139 107.608H66.7221C66.423 107.608 66.18 107.365 66.18 107.065V95.5079C66.18 95.2085 66.423 94.9653 66.7221 94.9653H68.4125C68.7116 94.9653 68.9547 95.2085 68.9547 95.5079V107.065H68.956Z" fill="white"></path>
								<path d="M211.83 92.1868C211.261 91.8661 210.739 91.7592 210.739 91.7592L201.237 91.6883V110.985H209.849C209.849 110.985 211.605 110.743 211.973 110.281C212.34 109.819 212.589 108.856 212.601 108.642C212.613 108.429 212.601 93.4217 212.601 93.4217C212.601 93.4217 212.398 92.5076 211.83 92.1868ZM208.309 107.065C208.309 107.365 208.066 107.608 207.767 107.608H206.076C205.777 107.608 205.534 107.365 205.534 107.065V95.5079C205.534 95.2085 205.777 94.9653 206.076 94.9653H207.767C208.066 94.9653 208.309 95.2085 208.309 95.5079V107.065Z" fill="white"></path>
								<path d="M48.456 91.6883L44.4102 110.985H48.918L49.3092 108.594H52.3335L52.7368 110.985H57.2913L53.2695 91.6883H48.456V91.6883ZM49.8019 105.507L50.8514 98.9185L51.8301 105.507H49.8019Z" fill="white"></path>
								<path d="M160.918 107.065C160.918 107.365 160.675 107.608 160.376 107.608H158.686C158.387 107.608 158.144 107.365 158.144 107.065V95.5079C158.144 95.2085 158.387 94.9653 158.686 94.9653H159.228H160.375H163.639L162.864 91.6883H156.059C154.811 91.6883 153.8 92.7013 153.8 93.9496V108.723C153.8 109.972 154.812 110.984 156.059 110.984H163.035C164.283 110.984 165.294 109.971 165.294 108.723V99.8433H160.917V107.065H160.918Z" fill="white"></path>
								<path d="M191.272 99.1671L188.853 91.7939H184.76V110.814H188.889V102.801L191.343 110.814H195.792V91.7939H191.272V99.1671Z" fill="white"></path>
								<path d="M65.8689 11.0845L52.7381 0H14.8386V62.8024L65.8689 50.1943V11.0845ZM46.5279 43.2234C46.5279 43.2234 46.2488 44.5532 45.0631 44.648C43.8774 44.7429 34.7911 44.648 34.7911 44.648V14.9201H44.9443C44.9443 14.9201 46.3503 15.0217 46.5279 16.1256C46.7055 17.2295 46.5279 43.2234 46.5279 43.2234Z" fill="white"></path>
							</svg>