<?xml version="1.0" encoding="utf-8"?>
<!-- Generator: Adobe Illustrator 25.2.0, SVG Export Plug-In . SVG Version: 6.00 Build 0)  -->
<svg version="1.1"
	 id="svg2" inkscape:version="0.91 r13725" sodipodi:docname="Vevo.svg" xmlns:cc="http://creativecommons.org/ns#" xmlns:dc="http://purl.org/dc/elements/1.1/" xmlns:inkscape="http://www.inkscape.org/namespaces/inkscape" xmlns:rdf="http://www.w3.org/1999/02/22-rdf-syntax-ns#" xmlns:sodipodi="http://sodipodi.sourceforge.net/DTD/sodipodi-0.dtd" xmlns:svg="http://www.w3.org/2000/svg"
	 xmlns="http://www.w3.org/2000/svg" xmlns:xlink="http://www.w3.org/1999/xlink" x="0px" y="0px" viewBox="0 0 1206.6 304"
	 style="enable-background:new 0 0 1206.6 304;" xml:space="preserve">
<style type="text/css">
	.st0{fill:#FFFFFF;}
</style>
<sodipodi:namedview  bordercolor="#666666" borderopacity="1.0" fit-margin-bottom="0" fit-margin-left="0" fit-margin-right="0" fit-margin-top="0" id="base" inkscape:current-layer="g5043" inkscape:cx="871.19022" inkscape:cy="406.1248" inkscape:document-units="px" inkscape:pageopacity="0.0" inkscape:pageshadow="2" inkscape:window-height="705" inkscape:window-maximized="1" inkscape:window-width="1366" inkscape:window-x="-8" inkscape:window-y="-8" inkscape:zoom="0.35" pagecolor="#ffffff" showgrid="false">
	</sodipodi:namedview>
<g id="layer1" transform="translate(231.26355,-376.64791)" inkscape:groupmode="layer" inkscape:label="Layer 1">
	<g id="g5003" transform="matrix(42.610384,0,0,42.610384,-385.96633,-426.56509)">
		<g id="g5005">
			<g id="g5043" transform="matrix(0.02346846,0,0,0.02346846,21.435384,20.290631)">
				<path id="path5069" inkscape:connector-curvature="0" class="st0" d="M295.9-61.4c-83.9,0-152,68.1-152,152
					c0,83.9,68.1,152,152,152s152-68.1,152-152c0,0,0,0,0,0C447.9,6.7,379.9-61.4,295.9-61.4z M295.9,161.6
					c-38,0-65.9-30.4-65.9-70.9s27.9-70.9,65.9-70.9c38,0,65.9,30.4,65.9,70.9S333.9,161.6,295.9,161.6z M-149.9,90.6
					c0-83.9-65.8-152-146.9-152s-146.9,68.1-146.9,152s65.9,152,149.5,152c66.8,0,119.2-40.4,136.6-96.3h-88.4
					c-12.3,18.2-30.3,22.8-48.1,22.8c-34.2,0-56-23.5-62.8-55.7h205.6C-150.5,105.9-149.9,98.3-149.9,90.6L-149.9,90.6z M-296.9,9.6
					c29.3,0,52,20.2,59,50.7H-356C-348.1,28.5-327.1,9.6-296.9,9.6z M-590.8,240.1L-758.7-52.5h98.9l69.1,133l69.1-133h98.9
					L-590.8,240.1z M-3,240.1L-170.9-52.5h98.9L-3,80.5l69.1-133h98.9L-3,240.1z"/>
			</g>
		</g>
	</g>
</g>
</svg>
