<svg xmlns="http://www.w3.org/2000/svg" viewBox="0 0 425.64 111.7"><defs><style>.cls-1{fill:#fff;}</style></defs><g id="Layer_2" data-name="Layer 2"><g id="text"><path class="cls-1" d="M104.77,45.28a3.22,3.22,0,0,1,2.69,0,7.82,7.82,0,0,1,2.74,1.82,16.67,16.67,0,0,1,2.31,3A11.62,11.62,0,0,1,114,53.37a5.85,5.85,0,0,1,0,3,3,3,0,0,1-1.79,2q-2.52,1.31-5.35,2.52c-1.88.82-3.64,1.63-5.26,2.44v25.4c0,2-.52,3.3-1.57,3.79A3.32,3.32,0,0,1,96.59,92a8.84,8.84,0,0,1-2.26-1.65,13.19,13.19,0,0,1-1.83-2.27,12.42,12.42,0,0,1-1.26-2.56A7.69,7.69,0,0,1,90.76,83V68.25L81,73.12v27.14c0,1.86-.43,2.95-1.27,3.27a4,4,0,0,1-3-.22,11.68,11.68,0,0,1-3.31-2.13,15.26,15.26,0,0,1-2.39-2.57,11.92,11.92,0,0,1-1.92-5.31,34.6,34.6,0,0,1-.17-6c.12-2.06.33-4.1.65-6.14s.54-3.88.66-5.56a15,15,0,0,1-2.66-3.66,11.11,11.11,0,0,1-1.26-4.17A6.4,6.4,0,0,1,67.14,64a4.85,4.85,0,0,1,3.18-2.27q0-8.7.39-17.18t.39-16.4a3.86,3.86,0,0,1,1.69-3.57c1.14-.69,2.51-.6,4.14.27a12.48,12.48,0,0,1,1.87,1.65,15,15,0,0,1,1.78,2.26,10.12,10.12,0,0,1,1.18,2.57,5.23,5.23,0,0,1,.13,2.56V55.11a5.16,5.16,0,0,0,1.52-.52q1.17-.53,2.61-1.26c1-.49,1.87-1,2.74-1.39s1.54-.74,2-.92V27.27a3.94,3.94,0,0,1,1.61-3.57,2.93,2.93,0,0,1,3.44.18,18.24,18.24,0,0,1,4.08,4.74,10.16,10.16,0,0,1,1.66,5.26V46.15a2.47,2.47,0,0,0,1.3-.43A3.61,3.61,0,0,1,104.77,45.28Z"/><path class="cls-1" d="M169.76,99.48c.34.52.72,1.16,1.13,1.92a17.1,17.1,0,0,1,1,2.35,9.34,9.34,0,0,1,.52,2.52,5.46,5.46,0,0,1-.43,2.52,1.83,1.83,0,0,1-1.48,1.22,4.34,4.34,0,0,1-2-.31,7.27,7.27,0,0,1-2-1.13,14.83,14.83,0,0,1-1.57-1.35q-4.09-6-8-11.91t-7.88-11.79q-4-5.88-8.13-11.66t-8.79-11.53a104.39,104.39,0,0,0-1.87,10.35q-.65,5.14-1.35,10.44c0,.76-.25,1.24-.74,1.44a3.23,3.23,0,0,1-1.69.17,6.52,6.52,0,0,1-2-.61,5.19,5.19,0,0,1-1.57-1A13.43,13.43,0,0,1,120.12,77a12.76,12.76,0,0,1-1-5.22,88.11,88.11,0,0,1,1.39-10q1-4.79,1.57-10a2.05,2.05,0,0,0-.39-1.18,1.84,1.84,0,0,1-.39-1c0-.58,0-1.2,0-1.87a8.4,8.4,0,0,1,.26-1.83,3.21,3.21,0,0,1,.7-1.35,1.74,1.74,0,0,1,1.35-.52h.78a12.57,12.57,0,0,1,.09-1.78,2.14,2.14,0,0,1,.69-1.18c-.81.41-1.6.79-2.35,1.14s-1.53.75-2.35,1.21a2.49,2.49,0,0,1-2.43.31,6.34,6.34,0,0,1-2.44-1.7,14.15,14.15,0,0,1-2-2.91,13.46,13.46,0,0,1-1.31-3.4,7.81,7.81,0,0,1-.13-3.13,3.37,3.37,0,0,1,1.39-2.22,45.36,45.36,0,0,1,10-4.35,39,39,0,0,1,11.31-1.78,30.24,30.24,0,0,1,10.83,1.87,18.93,18.93,0,0,1,8.61,6.53,15,15,0,0,1,3,5.09,13.59,13.59,0,0,1,.79,5.39,10.07,10.07,0,0,1-1.7,5,10.68,10.68,0,0,1-4.39,3.7,47,47,0,0,1-5.7,2.95,22.85,22.85,0,0,1-5.79,1.66q3.39,5.47,7.09,10.87T155.14,78q3.83,5.34,7.53,10.7T169.76,99.48ZM145.83,38.84a10.88,10.88,0,0,0-3.44-.78C141.26,38,140.12,38,139,38c-.06,0-.21.21-.44.61s-.48.87-.74,1.39-.51,1-.74,1.53a3.07,3.07,0,0,0-.35,1l4.57-1.74Q143.57,39.89,145.83,38.84Z"/><path class="cls-1" d="M208.64,54.72a28.87,28.87,0,0,1-.95,10.79,28.52,28.52,0,0,1-4.61,9.18,31.44,31.44,0,0,1-7.62,7.13,37.62,37.62,0,0,1-9.87,4.66,32.65,32.65,0,0,1-5.22,1.34,22.16,22.16,0,0,1-5.57.26,17.94,17.94,0,0,1-5.39-1.26,14,14,0,0,1-4.79-3.22,25.17,25.17,0,0,1-5.48-9.26,29.32,29.32,0,0,1-1.13-11,43.2,43.2,0,0,1,2.17-9.52,45.28,45.28,0,0,1,4.22-8.88,36.38,36.38,0,0,1,6-7.39,26.14,26.14,0,0,1,7.83-5.09,6.49,6.49,0,0,0-1-1.13,6.52,6.52,0,0,1-1.05-1.13,17.47,17.47,0,0,1-1.56-1.83,13.11,13.11,0,0,1-1.35-2.18,8.27,8.27,0,0,1-.78-2.34,4.42,4.42,0,0,1,.13-2.27,2.5,2.5,0,0,1,1-1.52,2.72,2.72,0,0,1,1.57-.48,4.7,4.7,0,0,1,1.74.35,4,4,0,0,1,1.39.87,7.76,7.76,0,0,0,2.05,1.87,16.47,16.47,0,0,0,2.43,1.26c.84.35,1.7.68,2.57,1s1.65.66,2.35,1q2.77,1.66,5.7,3.7a38.81,38.81,0,0,1,5.09,4.22,37.47,37.47,0,0,1,7,9.35A29.71,29.71,0,0,1,208.64,54.72Zm-24.53,18.1a36.76,36.76,0,0,0,6.31-4.14A28.35,28.35,0,0,0,195.77,63a21.85,21.85,0,0,0,3.3-6.92,16.76,16.76,0,0,0,.26-7.83,15.48,15.48,0,0,0-3.21-5.57,20.66,20.66,0,0,0-4.79-3.82,4,4,0,0,1-.61,2.13,3.55,3.55,0,0,1-2.26,1.43A23.08,23.08,0,0,0,181,46a29.52,29.52,0,0,0-5.92,5.74A35.5,35.5,0,0,0,170.76,59a36.17,36.17,0,0,0-2.57,8,14,14,0,0,0-.61,3.61c-.06,1.3-.09,2.51-.09,3.61V75a1.8,1.8,0,0,1,1,.35l.52.35a20.56,20.56,0,0,0,7.83-.31A32.63,32.63,0,0,0,184.11,72.82Z"/><path class="cls-1" d="M258.67,15.42a3.34,3.34,0,0,1,2.65.31,8.83,8.83,0,0,1,2.53,2.09,15,15,0,0,1,2,3.16,13.28,13.28,0,0,1,1.17,3.47,6.64,6.64,0,0,1-.08,3.06,2.45,2.45,0,0,1-1.7,1.79q-5.47,2.44-11.35,4.49t-11.36,4.08a208.44,208.44,0,0,0-6.26,25.05q-2.35,12.7-4,25.77a2.3,2.3,0,0,1-1.05,1.73,2.71,2.71,0,0,1-1.65.31,6.24,6.24,0,0,1-1.78-.51c-.61-.27-1.09-.51-1.44-.71a10.92,10.92,0,0,1-3.26-5,12.33,12.33,0,0,1-.39-6.28q1.13-9.07,2.74-17.91t3.78-17.29q-3.3,1.22-6.48,2a26.55,26.55,0,0,0-5.87,2.24,3.33,3.33,0,0,1-2.65-.3,8.84,8.84,0,0,1-2.57-2.15,16.58,16.58,0,0,1-2.13-3.21,13.67,13.67,0,0,1-1.26-3.47,8,8,0,0,1-.13-3,2.05,2.05,0,0,1,1.34-1.74q6.09-2.55,12.14-4.69T233.79,24c.35-.88.85-1.36,1.52-1.42a3,3,0,0,1,2,.61q5.66-1.93,10.75-3.83Z"/><path class="cls-1" d="M358.41,65.52a5.31,5.31,0,0,1,3.53.35A12.87,12.87,0,0,1,365.29,68a16.66,16.66,0,0,1,2.78,3.22,13.83,13.83,0,0,1,1.74,3.52,5.36,5.36,0,0,1,.17,3,2.43,2.43,0,0,1-1.82,1.74q-8,1.81-16.06,4a144.31,144.31,0,0,1-16.05,3.39,10.82,10.82,0,0,1-7-.35,13.36,13.36,0,0,1-4.87-3.65,15.22,15.22,0,0,1-2.87-5.31,18.65,18.65,0,0,1-.92-5.48,105.3,105.3,0,0,1,2.22-12.83q1.53-6.39,3.35-12.7t3.74-12.66q1.92-6.36,3.31-12.62a3,3,0,0,1,1.39-2.13,4,4,0,0,1,2.22-.48,7.11,7.11,0,0,1,2.35.61,10,10,0,0,1,1.87,1.05,12.54,12.54,0,0,1,4.22,4.74,7.06,7.06,0,0,1,.65,5.17q-1,5.22-2.39,10.36T340.49,51q-1.49,5.17-2.91,10.44T335,72.13a54.63,54.63,0,0,1,5.7-1.78c1.94-.5,3.91-1,5.91-1.44s4-1,6-1.48A52.24,52.24,0,0,0,358.41,65.52Z"/><path class="cls-1" d="M411.22,68a3.35,3.35,0,0,1,2.48.74A9.57,9.57,0,0,1,416,71.21a16.5,16.5,0,0,1,1.74,3.52,14.6,14.6,0,0,1,.82,3.74,6.77,6.77,0,0,1-.43,3.13A3.06,3.06,0,0,1,416,83.39q-5.49,1.22-10.66,2.48t-9.88,2.48a19.4,19.4,0,0,1,.66,3.69,6.93,6.93,0,0,1-.35,3,2.62,2.62,0,0,1-1.52,1.61,3.43,3.43,0,0,1-2.79-.56A7.17,7.17,0,0,1,389.6,95c-.55-.47-1.09-.93-1.61-1.39s-1-.87-1.48-1.22a2.2,2.2,0,0,0-1.3-.52c-1.63.4-2.93.71-3.92.91a4.18,4.18,0,0,1-3.22-.91,21.2,21.2,0,0,1-4-4.48,10.29,10.29,0,0,1-1.6-5.7,3.33,3.33,0,0,1,1.39-2.74,10.72,10.72,0,0,1,3.35-1.74,26.72,26.72,0,0,1,3.91-1c1.31-.24,2.36-.44,3.18-.61q0-5.66-.35-11.1t-1.31-11.7a2.23,2.23,0,0,0-.34-1.17,2.3,2.3,0,0,1-.35-1.26l-.87-1h-.7a5.45,5.45,0,0,1-3.7-1.78,14.87,14.87,0,0,1-3-4.14,11.58,11.58,0,0,1-1.26-4.78,4.19,4.19,0,0,1,1.65-3.74,74.62,74.62,0,0,1,7.7-3.31c2.7-1,5.42-2,8.18-2.91s5.46-1.95,8.13-3a57.66,57.66,0,0,0,7.57-3.52,3.57,3.57,0,0,1,2.83-.05,8.12,8.12,0,0,1,2.74,1.87,13.5,13.5,0,0,1,2.26,3.05,13.17,13.17,0,0,1,1.35,3.48,7.66,7.66,0,0,1,.13,3.13,2.64,2.64,0,0,1-1.48,2,32.88,32.88,0,0,1-5.83,3.57c-2,.93-4,1.75-6,2.48s-4.09,1.4-6.18,2-4.2,1.39-6.35,2.26a19.21,19.21,0,0,1,1.87,3.7,31.8,31.8,0,0,0,1.26,3,29,29,0,0,1,4.31-1.26,8.52,8.52,0,0,1,3.7,0,7,7,0,0,1,3.22,1.92,17.53,17.53,0,0,1,2.95,4.35q1.05,3.22,0,5a7,7,0,0,1-3,2.83A16.07,16.07,0,0,1,399,67.12q-2.43.43-4.26.87v5.13q4.17-1.4,8.27-2.61C405.68,69.7,408.44,68.86,411.22,68Z"/><path class="cls-1" d="M314.87,15.42a3.34,3.34,0,0,1,2.65.31A8.67,8.67,0,0,1,320,17.82a15.08,15.08,0,0,1,2,3.16,13.28,13.28,0,0,1,1.17,3.47,6.77,6.77,0,0,1-.09,3.06,2.44,2.44,0,0,1-1.69,1.79q-5.49,2.44-11.36,4.49t-11.35,4.08a206.57,206.57,0,0,0-6.26,25.05q-2.36,12.7-4,25.77a2.29,2.29,0,0,1-1,1.73,2.71,2.71,0,0,1-1.65.31,6.3,6.3,0,0,1-1.79-.51,15.82,15.82,0,0,1-1.43-.71,10.85,10.85,0,0,1-3.26-5,12.44,12.44,0,0,1-.4-6.28q1.14-9.07,2.75-17.91t3.78-17.29q-3.31,1.22-6.48,2a26.64,26.64,0,0,0-5.88,2.24,3.34,3.34,0,0,1-2.65-.3,8.81,8.81,0,0,1-2.56-2.15,16.17,16.17,0,0,1-2.14-3.21,13.67,13.67,0,0,1-1.26-3.47,8.45,8.45,0,0,1-.13-3,2.08,2.08,0,0,1,1.35-1.74q6.09-2.55,12.14-4.69T290,24c.35-.88.86-1.36,1.53-1.42a3,3,0,0,1,2,.61q5.65-1.93,10.74-3.83Z"/></g><g id="Music_Note" data-name="Music Note"><path class="cls-1" d="M11.66,26.58c-18.49.63-9.45-1.1-9.45-1.1,29.32-7.41,17.5-5.91,57.85-10.1,39.26-4.07,374.47-42.11,365.4,19.23C423.66,4.54,314.77,8.75,286.72,8.85,240.67,9,201.5,10.56,63.25,22.47V91.15c-.08,10.74-12.16,19.51-21.93,20.41-.87.08-7,.85-11-2.39-5.86-4.87,2.21-18.36,8-22.09,8.91-5.74,14.23-4.44,15.92-4.07V23.21Z"/></g></g></svg>